<svg xmlns="http://www.w3.org/2000/svg" xmlns:xlink="http://www.w3.org/1999/xlink" version="1.1" id="Layer_1" x="0px" y="0px" viewBox="0 0 1080 1080" style="enable-background:new 0 0 1080 1080;" xml:space="preserve" width="1080"  height="1080" >
<g>
	<path d="M195.38,675.09h38.49c0.59,0,0.91-0.67,0.54-1.13c-19.93-24.56-37.2-51.92-51.17-81.88   c-19.32-41.43-30.78-84.5-35.05-127.55c-0.12-1.18,0.95-2.14,2.11-1.91l44.69,8.69c1.82,0.35,3.36,1.55,4.14,3.24l93.24,199.96   c0.16,0.36,0.52,0.58,0.92,0.58h271.25c0.37,0,0.71-0.2,0.89-0.52l43.59-78.63c0.87-1.58,0.94-3.48,0.18-5.11L467.87,287.77   c-0.76-1.63-2.26-2.8-4.03-3.15l-97.64-18.98c-1.92-0.37-3.9-0.13-5.67,0.7l-206.58,96.33c-1.18,0.55-2.49-0.45-2.28-1.73   c20.71-123.51,99.88-235.08,221.96-292C495.72,12.01,632.07,23.08,740,86.6c1.12,0.66,1.03,2.31-0.14,2.86l-51.34,23.94   c-1.7,0.79-2.79,2.5-2.79,4.37l0,29.63l-46.55-9.05c-1.92-0.37-3.91-0.13-5.68,0.7l-82.08,38.27c-1.77,0.82-3.23,2.19-4.18,3.9   l-48.22,86.99c-0.88,1.58-0.94,3.48-0.18,5.11l141.32,303.06c0.76,1.63,2.26,2.8,4.03,3.15l97.64,18.98   c1.92,0.37,3.9,0.13,5.67-0.7l172.66-80.51c1.22-0.57,2.58,0.53,2.25,1.84c-13.82,56.41-40.02,109.52-77.01,155.05   c-0.29,0.36-0.04,0.9,0.43,0.9h38.6c0.33,0,0.64-0.16,0.83-0.43c87.05-120.96,107.93-284.15,40.47-428.82   C826.4,32.81,573.17-59.36,360.13,39.98c-213.03,99.34-305.2,352.57-205.86,565.6c11.54,24.76,25.19,47.86,40.59,69.24   C194.98,674.99,195.17,675.09,195.38,675.09 M342.97,391.84c19.33-9.01,42.3-0.65,51.32,18.68l74.25,159.22   c9.01,19.33,0.65,42.3-18.68,51.32l-42.37,19.76l-96.57-207.09c-0.76-1.63-2.26-2.8-4.03-3.15l-33.15-6.44L342.97,391.84z    M789.11,120.82c44.52,36.32,81.76,82.97,107.67,138.53c29.27,62.77,40.56,129.31,35.99,193.82c-0.12,1.65-2.37,2.05-3.06,0.55   l-46.23-99.14c-0.7-1.49-2.47-2.14-3.96-1.44l-95.12,44.36c-1.49,0.7-2.14,2.47-1.44,3.96l24.62,52.79l-41.84,19.51   c-19.33,9.01-42.3,0.65-51.32-18.68l-80.25-172.09c-0.76-1.63-2.26-2.8-4.03-3.15l-33.15-6.44l103.7-48.36l26.62,57.09   c0.7,1.49,2.47,2.14,3.96,1.44l86.81-40.48c1.54-0.72,2.33-2.45,1.86-4.09l-33.4-116.47C786.12,121.01,787.89,119.82,789.11,120.82   "/>
	<path d="M166.23,709.39h-36.51c-0.47,0-0.85,0.38-0.85,0.85v213.59h-28.44c-1.77,0-3.2-1.43-3.2-3.2V710.24   c0-0.47-0.38-0.85-0.85-0.85H37.53c-0.36,0-0.68,0.23-0.8,0.56c-0.12,0.34-0.02,0.72,0.26,0.95l22.32,18.38v209.58   c0,12.8,10.38,23.18,23.18,23.18h83.73c0.47,0,0.85-0.38,0.85-0.85V710.24C167.09,709.77,166.7,709.39,166.23,709.39"/>
	<path d="M317.59,709.39h-36.51c-0.47,0-0.85,0.38-0.85,0.85v130.12l-45.84-130.3c-0.08-0.39-0.43-0.67-0.83-0.67h-33.54   c-0.47,0-0.85,0.38-0.85,0.85v250.95c0,0.47,0.38,0.85,0.85,0.85h36.2c0.47,0,0.85-0.38,0.85-0.85V832.4l48.21,128.96   c0.08,0.39,0.43,0.68,0.84,0.68h31.47c0.47,0,0.85-0.38,0.85-0.85V710.24C318.44,709.77,318.06,709.39,317.59,709.39"/>
	<path d="M387.58,709.39h-36.21c-0.47,0-0.85,0.38-0.85,0.85v250.95c0,0.47,0.38,0.85,0.85,0.85h36.21c0.47,0,0.85-0.38,0.85-0.85   V710.24C388.43,709.77,388.05,709.39,387.58,709.39"/>
	<path d="M523,709.39h-36.51c-0.45,0-0.83,0.35-0.85,0.81L468.6,923.83L451.63,710.2c-0.02-0.46-0.4-0.81-0.85-0.81h-36.51   c-0.23,0-0.46,0.1-0.62,0.27c-0.16,0.17-0.24,0.4-0.23,0.63l18.91,250.94c0.03,0.45,0.4,0.81,0.85,0.81h70.9   c0.45,0,0.82-0.35,0.85-0.81l18.91-250.94c0.01-0.23-0.07-0.46-0.23-0.63C523.46,709.49,523.23,709.39,523,709.39"/>
	<path d="M773.29,846.46v-113.9c0-12.78-10.26-23.18-22.88-23.18h-83.73c-0.47,0-0.85,0.38-0.85,0.85v250.95   c0,0.47,0.38,0.85,0.85,0.85h36.21c0.47,0,0.85-0.38,0.85-0.85v-91.85h19.4l16.34,91.98c0.07,0.41,0.42,0.72,0.84,0.72h37.88   c0.25,0,0.49-0.11,0.65-0.31c0.16-0.19,0.23-0.45,0.19-0.7l-18.32-94.17C768.38,863.05,773.29,855.12,773.29,846.46 M733.42,752.31   v74.51c0,2.61-2.11,4.72-4.72,4.72h-27.16v-83.96h27.16C731.3,747.59,733.42,749.7,733.42,752.31"/>
	<path d="M805.35,888.5v51.21c0,12.33,10,22.33,22.33,22.33h63.11c12.28,0,22.33-10.05,22.33-22.33V833.66   c0-12.33-9.99-22.33-22.33-22.33h-47.53V747.3h31.64v44.94c0,0.51,0.54,0.85,1,0.63l36.81-17.43c0.25-0.12,0.4-0.36,0.4-0.63   v-43.09c0-12.33-9.99-22.33-22.33-22.33h-63.11c-12.33,0-22.33,10-22.33,22.33v95.2c0,12.33,9.99,22.32,22.32,22.32h47.23v74.59   h-31.64V871c0-0.31-0.32-0.51-0.6-0.38l-37.07,17.5C805.45,888.19,805.35,888.34,805.35,888.5"/>
	<path d="M1032.12,747.3c0.36,0,0.69-0.23,0.81-0.58l10.34-36.21c0.09-0.26,0.05-0.55-0.12-0.77c-0.16-0.23-0.41-0.36-0.69-0.36   h-96.42c-0.47,0-0.85,0.38-0.85,0.85v250.95c0,0.47,0.38,0.85,0.85,0.85h90.21c0.47,0,0.85-0.38,0.85-0.85v-36.51   c0-0.47-0.39-0.85-0.85-0.85h-53.15v-74.59h43.82c0.47,0,0.85-0.38,0.85-0.85v-36.21c0-0.47-0.38-0.85-0.85-0.85h-43.82V747.3   H1032.12z"/>
	<path d="M634.14,747.3c0.36,0,0.69-0.23,0.81-0.58l10.34-36.21c0.09-0.26,0.05-0.55-0.11-0.77c-0.16-0.23-0.42-0.36-0.69-0.36   h-96.42c-0.47,0-0.85,0.38-0.85,0.85v250.95c0,0.47,0.38,0.85,0.85,0.85h90.21c0.47,0,0.85-0.38,0.85-0.85v-36.51   c0-0.47-0.39-0.85-0.85-0.85h-53.15v-74.59h43.82c0.47,0,0.85-0.38,0.85-0.85v-36.21c0-0.47-0.38-0.85-0.85-0.85h-43.82V747.3   H634.14z"/>
	<rect x="59.72" y="997.27" width="26.96" height="82.73"/>
	<polygon points="147.96,997.27 170.38,997.27 231.39,1048.5 232.25,1048.5 232.25,997.27 255.95,997.27 255.95,1080 233.1,1080    172.51,1028.2 171.8,1028.2 171.8,1080 147.96,1080  "/>
	<polygon points="317.35,997.27 400.08,997.27 400.08,1014.73 344.31,1014.73 344.31,1035.73 390.57,1035.73 390.57,1052.19    344.31,1052.19 344.31,1080 317.35,1080  "/>
	<rect x="453.26" y="997.27" width="26.96" height="82.73"/>
	<polygon points="541.51,997.27 563.93,997.27 624.94,1048.5 625.79,1048.5 625.79,997.27 649.49,997.27 649.49,1080 626.65,1080    566.06,1028.2 565.35,1028.2 565.35,1080 541.51,1080  "/>
	<rect x="710.9" y="997.27" width="26.96" height="82.73"/>
	<polygon points="790.34,997.27 898.04,997.27 898.04,1016 857.46,1016 857.46,1080 830.5,1080 830.5,1016 790.34,1016  "/>
	<polygon points="950.51,997.27 1037.07,997.27 1037.07,1014.73 977.48,1014.73 977.48,1030.33 1027.71,1030.33 1027.71,1045.8    977.48,1045.8 977.48,1062.4 1038.49,1062.4 1038.49,1080 950.51,1080  "/>
</g>
</svg>